<svg t="1784471740698" class="icon" viewBox="0 0 1024 1024" version="1.1" xmlns="http://www.w3.org/2000/svg" p-id="10761" width="200" height="200"><path d="M243.072 567.424l201.685333 86.442667a170.666667 170.666667 0 0 0 134.485334 0l201.685333-86.442667a21.333333 21.333333 0 0 1 29.738667 19.626667v167.338666a85.333333 85.333333 0 0 1-51.712 78.421334L661.333333 874.666667a379.093333 379.093333 0 0 1-298.666666 0l-97.621334-41.813334A85.333333 85.333333 0 0 1 213.333333 754.346667v-167.381334a21.333333 21.333333 0 0 1 29.738667-19.626666z" fill="#ffffff" p-id="10762"></path><path d="M588.330667 123.477333l359.338666 179.712a42.666667 42.666667 0 0 1 0 76.288l-359.338666 179.712a170.666667 170.666667 0 0 1-152.661334 0L76.373333 379.477333a42.666667 42.666667 0 0 1 0-76.288l359.338667-179.712a170.666667 170.666667 0 0 1 152.661333 0z" fill="#ffffff" p-id="10763"></path><path d="M928 640V384h-64v256z" fill="#ffffff" p-id="10764"></path><path d="M880.810667 594.346667l-30.165334 30.208a21.333333 21.333333 0 0 0 0 30.165333l30.165334 30.165333a21.333333 21.333333 0 0 0 30.165333 0l30.165333-30.165333a21.333333 21.333333 0 0 0 0-30.165333l-30.165333-30.165334a21.333333 21.333333 0 0 0-30.165333 0z" fill="#ffffff" p-id="10765"></path></svg>
